# xmcd
#
# Track frame offsets:
#	150
#	14703
#	32221
#	42174
#	57906
#	76454
#	88633
#	101199
#	116381
#	135036
#	163060
#
# Disc length: 2504 seconds
#
# Revision: 1
# Processed by: cddbd v1.5.2PL0 Copyright (c) Steve Scherf et al.
# Submitted via: EasyCDDAExtractor 11.9.9.666
#
DISCID=8809c60b
DTITLE=IfIHadAHiFi - Fame by Proxy
DYEAR=2008
DGENRE=Noise
TTITLE0=Defenestrate Me
TTITLE1=Paradise by the Pauding Light
TTITLE2=Your Head on a Ratings Spike
TTITLE3=Black Holes Resonate (in B-Flat), Baby
TTITLE4=Get Killed, Get Noticed
TTITLE5=Creative Lessons in Accounting
TTITLE6=Science Depends on Us
TTITLE7=You Can Dig a Thousand Holes, But It Takes a Body to Make a Grave
TTITLE8=Song For the Dead Millionaire
TTITLE9=Success! Success! Success!
TTITLE10=99 Probalos
EXTD=
EXTT0=
EXTT1=
EXTT2=
EXTT3=
EXTT4=
EXTT5=
EXTT6=
EXTT7=
EXTT8=
EXTT9=
EXTT10=
PLAYORDER=
